<?xml version="1.0" encoding="utf-8"?>
<!-- Generator: Adobe Illustrator 24.0.0, SVG Export Plug-In . SVG Version: 6.00 Build 0)  -->
<svg version="1.1" id="Layer_1" xmlns="http://www.w3.org/2000/svg" xmlns:xlink="http://www.w3.org/1999/xlink" x="0px" y="0px"
	 viewBox="0 0 124.8 102.5" style="enable-background:new 0 0 124.8 102.5;" xml:space="preserve">
<style type="text/css">
	.st0{fill:none;stroke:#231F20;stroke-miterlimit:10;}
	.st1{fill:none;stroke:#F7BC23;stroke-miterlimit:10;}
	.st2{fill:#F7BC23;}
</style>
<title>Connected</title>
<circle class="st0" cx="62.4" cy="57.4" r="44.6"/>
<path class="st1" d="M6.2,57.4C5.8,26.4,30.6,0.9,61.7,0.5c31-0.4,56.5,24.4,56.9,55.4c0,0.5,0,1,0,1.5"/>
<circle class="st2" cx="118.6" cy="57.4" r="6.2"/>
<circle class="st2" cx="6.2" cy="57.4" r="6.2"/>
<path d="M43.7,66.5c1-0.4,2-0.7,3.1-0.8c2.6-0.1,4.8,1.7,5.3,4.3c0.6,2.9-1.3,5.7-4.1,6.3c-2,0.4-4-0.3-5.3-1.9
	c-1.5-2.1-1.5-4.9,0.2-6.8C43.1,67.2,43.4,66.9,43.7,66.5L43.7,66.5z"/>
<path d="M71.8,71c-0.1-2.8,2.1-5.2,4.9-5.3c0.1,0,0.3,0,0.4,0c2.9,0.1,5.2,2.4,5.3,5.3c-0.1,2.9-2.5,5.2-5.4,5.3
	c-2.9,0.1-5.2-2.2-5.3-5.1C71.7,71.2,71.7,71.1,71.8,71z"/>
<path d="M51,41.6c1.2,2,1.8,4.1,0.5,6.3c-1.3,2.2-4,3.2-6.4,2.4c-2.4-0.9-3.9-3.4-3.5-6c0.5-2.4,2.5-4.2,5-4.3
	C48.2,39.9,49.8,40.5,51,41.6L51,41.6z"/>
<path d="M77,40c2.9-0.1,5.4,2.2,5.5,5.1c0.1,2.9-2.2,5.4-5.1,5.5c-0.2,0-0.3,0-0.5,0c-2.8,0.1-5.1-2.1-5.2-4.9c0-0.2,0-0.3,0-0.5
	c-0.1-2.7,2-5,4.7-5.2C76.6,40,76.8,40,77,40z"/>
<path d="M51,41.6c-0.1-0.3-0.2-0.5-0.3-0.7c-0.5-0.8-0.2-1.2,0.5-1.6c4.4-2.4,9.6-3,14.5-1.9c0.9,0.2,1.8,0.5,2.2-0.7
	c0.2-0.5,0.5-0.3,0.8,0c0.8,1.2,1.7,2.3,2.5,3.5c0.4,0.6,0.2,0.9-0.5,0.9c-1.4,0.2-2.8,0.3-4.1,0.4c-0.7,0.1-0.8-0.3-0.6-0.8
	c0.5-0.9,0-1.1-0.8-1.3c-4.4-1-8.9-0.4-12.9,1.6C52,41.3,51.5,41.6,51,41.6L51,41.6z"/>
<path d="M60.7,51.9c3.6,0,7.1-0.9,10.2-2.7c0.6-0.4,1.1-0.6,1.6,0.3s0.2,1.2-0.5,1.6c-4.3,2.5-9.2,3.4-14.1,2.7
	c-1-0.2-2-0.7-2.5,0.9c-0.2,0.5-0.6,0.1-0.8-0.1c-0.9-1.1-1.8-2.2-2.7-3.3c-0.4-0.5-0.4-0.8,0.3-0.9l4.2-0.7
	c0.7-0.1,0.9,0.2,0.6,0.8s0,1,0.7,1.1L60.7,51.9z"/>
<path d="M63,64.5c-3.4-0.1-6.7,0.8-9.7,2.6c-0.7,0.4-1.2,0.7-1.8-0.3s0.2-1.3,0.8-1.6c4.4-2.6,9.5-3.5,14.5-2.5
	c0.8,0.1,1.4,0.2,1.7-0.8c0.2-0.6,0.5-0.7,0.9-0.1c0.9,1.1,1.8,2.2,2.7,3.3c0.4,0.5,0.2,0.8-0.3,0.9c-1.4,0.2-2.7,0.4-4.1,0.6
	c-0.6,0.1-0.9-0.2-0.7-0.8s0-0.9-0.7-1C65.3,64.6,64.2,64.5,63,64.5z"/>
<path d="M61.1,77.2c3.5,0.1,6.9-0.9,9.9-2.7c0.8-0.5,1.2-0.4,1.7,0.4s0.1,1.1-0.6,1.5c-4.2,2.6-9.2,3.5-14.1,2.8
	c-1-0.1-2.1-0.6-2.5,0.9c-0.1,0.4-0.5,0.3-0.7,0c-0.9-1.1-1.9-2.3-2.8-3.4c-0.4-0.5-0.2-0.8,0.4-0.8c1.4-0.2,2.7-0.5,4.1-0.7
	c0.6-0.1,0.9,0.1,0.7,0.7c-0.4,1,0.2,1.2,0.9,1.2C59.1,77.1,60.1,77.2,61.1,77.2z"/>
<path d="M43.7,66.5c-2,0.6-2,0.6-2.7-1.4c-1-2.8-1.4-5.8-1.1-8.8c0.1-0.7,0-1.2-0.8-1.4s-0.9-0.5-0.3-1c1-0.9,1.9-1.9,2.8-2.8
	c0.5-0.5,0.9-0.5,1.1,0.3c0.3,1.3,0.7,2.5,1,3.8c0.2,0.7,0.2,1.2-0.8,0.9s-1,0.5-1,1.1c-0.1,2.6,0.2,5.2,1.1,7.7
	C43.4,65.3,43.6,65.9,43.7,66.5L43.7,66.5z"/>
<path d="M82.5,58.4c-0.1,0.9-0.3,1.9,1.2,2.2c0.6,0.1,0.2,0.5,0,0.8c-0.9,1.1-1.9,2.1-2.9,3.2c-0.3,0.4-0.7,0.4-0.9-0.1
	c-0.4-1.4-0.9-2.8-1.3-4.2c-0.2-0.5,0.1-0.8,0.6-0.7c1,0.2,1.1-0.4,1.1-1.2c0-2.2-0.4-4.3-1.1-6.4c-0.3-0.8-0.2-1.2,0.7-1.6
	s1.1,0.2,1.4,0.9C82,53.5,82.4,55.9,82.5,58.4z"/>
</svg>
