<?xml version="1.0" encoding="utf-8"?>
<!-- Generator: Adobe Illustrator 24.0.0, SVG Export Plug-In . SVG Version: 6.00 Build 0)  -->
<svg version="1.1" id="Layer_1" xmlns="http://www.w3.org/2000/svg" xmlns:xlink="http://www.w3.org/1999/xlink" x="0px" y="0px"
	 viewBox="0 0 124.8 101.8" style="enable-background:new 0 0 124.8 101.8;" xml:space="preserve">
<style type="text/css">
	.st0{fill:none;stroke:#231F20;stroke-miterlimit:10;}
	.st1{fill:none;stroke:#D47698;stroke-miterlimit:10;}
	.st2{fill:#D47698;}
	.st3{fill:none;stroke:#222F3E;stroke-linecap:round;stroke-linejoin:round;}
</style>
<title>DataDriven</title>
<circle class="st0" cx="62.4" cy="56.7" r="44.6"/>
<path class="st1" d="M6.2,56.7c0-31,25.2-56.2,56.2-56.2s56.2,25.2,56.2,56.2"/>
<circle class="st2" cx="118.6" cy="56.7" r="6.2"/>
<circle class="st2" cx="6.2" cy="56.7" r="6.2"/>
<g>
	<title>43. Globe</title>
	<desc>Created with Sketch.</desc>
	<g id="_x34_3.-Globe_1_">
		<circle id="Layer-1_1_" class="st3" cx="60.5" cy="54.9" r="20.6"/>
		<path id="Layer-2_1_" class="st3" d="M60.5,34.3v41.2"/>
		<path id="Layer-3_1_" class="st3" d="M81.1,54.9H39.9"/>
		<path id="Layer-4_1_" class="st3" d="M60.5,34.3c0,0,10.4,8,10.4,20.6S60.5,75.5,60.5,75.5"/>
		<path id="Layer-5_1_" class="st3" d="M60.6,34.3c0,0-10.4,8-10.4,20.6s10.4,20.6,10.4,20.6"/>
		<path id="Layer-6_1_" class="st3" d="M46.1,69.1c3.2-2.8,8.1-5.9,14.3-5.9c6.3,0,11.3,3.2,14.5,6.1"/>
		<path id="Layer-7_1_" class="st3" d="M46.1,40.6c3.2,2.8,8.1,5.9,14.3,5.9c6.3,0,11.3-3.2,14.5-6.1"/>
	</g>
</g>
<path class="st3" d="M32,53.2"/>
</svg>
