<?xml version="1.0" encoding="utf-8"?>
<!-- Generator: Adobe Illustrator 24.0.0, SVG Export Plug-In . SVG Version: 6.00 Build 0)  -->
<svg version="1.1" id="Layer_1" xmlns="http://www.w3.org/2000/svg" xmlns:xlink="http://www.w3.org/1999/xlink" x="0px" y="0px"
	 viewBox="0 0 124.8 102.5" style="enable-background:new 0 0 124.8 102.5;" xml:space="preserve">
<style type="text/css">
	.st0{fill:none;stroke:#231F20;stroke-miterlimit:10;}
	.st1{fill:none;stroke:#9FAA39;stroke-miterlimit:10;}
	.st2{fill:#9FAA39;}
</style>
<title>Green</title>
<circle class="st0" cx="62.4" cy="57.4" r="44.6"/>
<path class="st1" d="M6.2,57.5C5.8,26.4,30.6,0.9,61.7,0.5c31-0.4,56.5,24.4,56.9,55.4c0,0.5,0,1,0,1.5"/>
<path d="M60.9,30.7c0.1,0.2,0.1,0.4,0.1,0.6v15.7c0,0.2,0.1,0.4-0.1,0.6s-0.4-0.2-0.5-0.3c-1.7-1.6-3.4-3.1-5.1-4.6l2.4,3
	c1,1.2,2,2.5,3,3.7c0.3,0.3,0.4,0.8,0.4,1.2c0,2,0,3.9,0,5.8c0,0.2,0.1,0.4-0.1,0.5s-0.3-0.2-0.5-0.3l-4.2-3.9
	c-0.2-0.2-0.4-0.4-0.7-0.4l2.4,3c0.9,1.2,1.9,2.4,2.8,3.6c0.2,0.3,0.3,0.6,0.3,0.9c0,2,0,4,0,6.1c0,0.2,0.1,0.4-0.1,0.5
	s-0.3-0.1-0.4-0.2c-1.7-1.5-3.3-3.1-5-4.6c-0.1-0.2-0.3-0.3-0.5-0.4c1.7,2.2,3.5,4.4,5.2,6.6c0.5,0.6,0.8,1.3,0.8,2.1
	c0,1.7,0,3.4,0,5.2c0,0.3,0.1,0.6-0.1,0.7s-0.4-0.2-0.6-0.4c-1.6-1.4-3.1-2.9-4.7-4.3c-0.1-0.1-0.2-0.1-0.2-0.1l2.8,3.5
	c0.8,1,1.6,2.1,2.5,3.1c0.3,0.3,0.4,0.7,0.4,1.1c0,1.8,0,3.7,0,5.5c0,0.4-0.1,0.6-0.6,0.6c-3.8-0.6-7.4-2-10.6-4.3
	c-3.3-2.4-5.5-6.1-5.8-10.2c-0.3-3.9,0.1-7.8,1.4-11.4c2-6.2,4.9-12.2,8.4-17.7c2.1-3.4,4.3-6.7,6.7-9.9
	C60.6,31,60.7,30.8,60.9,30.7z"/>
<path d="M68.3,70.8l-3,2.8c-0.7,0.7-1.4,1.4-2.2,2c-0.1,0.1-0.2,0.3-0.3,0.2s-0.1-0.2-0.1-0.4c0-2.1,0-4.2,0-6.3
	c0-0.3,0.1-0.6,0.3-0.9c1.8-2.3,3.7-4.7,5.5-7.1l-2.2,2l-3.2,3c-0.1,0.1-0.2,0.3-0.4,0.2s-0.1-0.3-0.1-0.4c0-2.1,0-4.1,0-6.2
	c0-0.4,0.2-0.7,0.4-1l5-6.3c0.1-0.1,0.1-0.2,0.1-0.3c-0.2,0.2-0.5,0.4-0.7,0.6l-4.2,4c-0.1,0.1-0.2,0.3-0.4,0.3s-0.1-0.3-0.1-0.5
	c0-2,0-4,0-6.1c0-0.4,0.2-0.7,0.4-1l5.2-6.5c0.1-0.1,0.1-0.2,0.1-0.3c-0.4,0.4-0.9,0.8-1.3,1.2l-3.7,3.5c-0.1,0.1-0.3,0.4-0.5,0.3
	s-0.1-0.3-0.1-0.5c0-5.3,0-10.6,0-15.9c0-0.2-0.1-0.3,0.2-0.5c0.4,0.6,0.8,1.1,1.3,1.7c4,5.5,7.5,11.3,10.6,17.4
	c2.1,4.1,3.6,8.4,4.6,12.9C80,66,80,69.5,79.1,72.9c-1,3.5-3.3,6.5-6.4,8.4c-2.8,1.7-6,2.9-9.3,3.5c-0.6,0.1-0.7-0.1-0.7-0.6
	c0-1.8,0-3.7,0-5.5c0-0.4,0.2-0.9,0.5-1.2c1.6-2,3.2-4,4.8-6C68.1,71.3,68.2,71,68.3,70.8z"/>
<circle class="st2" cx="118.6" cy="57.4" r="6.2"/>
<circle class="st2" cx="6.2" cy="57.4" r="6.2"/>
</svg>
