<?xml version="1.0" encoding="utf-8"?>
<!-- Generator: Adobe Illustrator 24.0.0, SVG Export Plug-In . SVG Version: 6.00 Build 0)  -->
<svg version="1.1" id="Layer_1" xmlns="http://www.w3.org/2000/svg" xmlns:xlink="http://www.w3.org/1999/xlink" x="0px" y="0px"
	 viewBox="0 0 123.2 101" style="enable-background:new 0 0 123.2 101;" xml:space="preserve">
<style type="text/css">
	.st0{fill:none;stroke:#231F20;stroke-miterlimit:10;}
	.st1{fill:none;stroke:#BF1A8D;stroke-miterlimit:10;}
	.st2{fill:#BF1A8D;}
</style>
<title>Inclusive</title>
<circle class="st0" cx="60.8" cy="56" r="44.6"/>
<path class="st1" d="M4.6,56C5,24.9,30.5,0.1,61.5,0.5c30.5,0.4,55,25,55.4,55.4"/>
<path d="M87.1,52v0.8c0,5.4,0,10.8,0,16.1c0,0.6,0,1.1,0,1.7c0,0.7-0.6,1.3-1.3,1.3c-0.7,0-1.3-0.7-1.3-1.4c0-2.1,0-4.3,0-6.4
	c0-1.5,0-3,0-4.5c0-0.1,0.1-0.3-0.1-0.4c-0.1,0.1-0.1,0.3-0.1,0.4c0,3.6,0,7.2,0,10.8c0.1,0.7-0.4,1.3-1,1.4c-0.7,0.2-1.4-0.3-1.6-1
	c0-0.1,0-0.2,0-0.3c0-0.5,0-1,0-1.5c0-2.3,0-4.6,0-6.8v-9.9c0-0.1,0-0.3-0.1-0.4c0,0.4-0.1,0.7-0.1,1.1c0,1.4,0,2.7,0,4.1
	c0.1,0.6,0,1.2-0.1,1.8c-0.1,0.5-0.5,0.8-1,0.8c0,0,0,0-0.1,0c-0.6,0-1-0.4-1-1c0-2.2,0-4.3,0-6.5c0-0.6,0-1.2,0-1.8
	c-0.1-0.5,0.3-1,0.9-1.1c0.1,0,0.1,0,0.2,0c2.6,0,5.2,0,7.7,0c0.6,0,1.1,0.4,1.1,1c0,0,0,0.1,0,0.1c0.1,2.7,0.1,5.5,0.1,8.2
	c0.1,0.6-0.4,1.1-1,1.2c-0.1,0-0.3,0-0.4,0c-0.4-0.1-0.7-0.3-0.7-0.7c-0.1-0.7-0.2-1.4-0.1-2.1c0-1.6,0.1-3.2,0-4.7
	C87.2,52.1,87.2,52,87.1,52z"/>
<path d="M32.7,52.1c-0.1,0.3-0.2,0.7-0.1,1c0,1.4,0,2.9,0.1,4.3c0,0.5,0,1.1-0.1,1.6c-0.1,0.5-0.5,0.9-1,0.8c0,0-0.1,0-0.1,0
	c-0.6,0-1-0.4-1-1c0,0,0,0,0-0.1c0-1.7,0-3.3,0-5c0-1.1,0-2.2,0.1-3.3c-0.1-0.6,0.3-1.1,0.9-1.2c0.1,0,0.1,0,0.2,0
	c2.6,0,5.2,0,7.8,0c0.5-0.1,1,0.4,1.1,0.9c0,0.1,0,0.1,0,0.2c0.1,2.7,0.1,5.5,0.1,8.2c0.1,0.6-0.4,1.1-1,1.2c-0.1,0-0.3,0-0.4,0
	c-0.4-0.1-0.7-0.4-0.8-0.8c-0.1-0.7-0.2-1.3-0.1-2c0.1-1.6,0.1-3.2,0-4.8c0,0,0-0.1-0.1-0.2c0,0.1,0,0.2,0,0.3c0,5.5,0,11,0,16.4
	c0,0.6,0,1.3,0,1.9c0,0.7-0.6,1.3-1.3,1.2c-0.7,0-1.3-0.6-1.3-1.3c0,0,0,0,0-0.1c0-2.2,0-4.4,0-6.7v-4.3c0-0.1,0-0.3-0.1-0.3
	c-0.1,0.1-0.1,0.3-0.1,0.4v10.8c0,0.6-0.4,1.2-1,1.4c-0.7,0.2-1.4-0.2-1.6-0.9c0-0.1,0-0.3,0-0.4c0-1.6,0-3.1,0-4.7
	c-0.1-4.5,0-9-0.1-13.5C32.7,52.2,32.7,52.1,32.7,52.1z"/>
<path d="M50.4,51.9c-0.1,0.2-0.1,0.3-0.1,0.5c0,6,0,12,0,18c0,0.5-0.2,1-0.6,1.2c-0.6,0.4-1.4,0.3-1.8-0.3c-0.1-0.2-0.2-0.4-0.2-0.7
	c0-0.1,0-0.3,0-0.4V59.7c0-0.2,0-0.3-0.1-0.4c-0.2,0.1-0.1,0.3-0.1,0.4c0,3.6,0,7.1,0,10.6c0,0.2,0,0.4,0,0.6c-0.1,0.6-0.7,1-1.3,1
	c-0.7-0.1-1.2-0.6-1.2-1.3c0-0.9,0-1.7,0-2.6c0-5.2,0-10.4-0.1-15.7c0-0.1,0-0.2-0.1-0.3c-0.1,0.3-0.1,0.7-0.1,1c0,1.5,0,3,0,4.6
	c0,0.5,0,1-0.1,1.5c-0.1,0.5-0.6,0.8-1.1,0.7c0,0,0,0,0,0c-0.5,0-1-0.5-0.9-1c0-2.4,0-4.8,0.1-7.2c0-0.4,0-0.8,0-1.2
	c0-0.6,0.4-1.1,1-1.1c0,0,0.1,0,0.1,0h7.6c0.6-0.1,1.1,0.3,1.2,0.9c0,0.1,0,0.2,0,0.3c0.1,2.7,0.1,5.4,0.1,8.1c0,0.6-0.4,1.1-1,1.2
	c-0.2,0-0.3,0-0.5-0.1c-0.3-0.1-0.6-0.4-0.6-0.7c-0.1-0.6-0.2-1.3-0.1-1.9c0.1-1.6,0.1-3.3,0-4.9C50.5,52.1,50.4,52.1,50.4,51.9z"/>
<path d="M69.5,52c-0.2,0.7-0.2,1.5-0.2,2.2c0,1.1,0,2.3,0,3.4c0,0.4,0,0.9-0.1,1.3c-0.1,0.5-0.6,0.8-1.1,0.7c0,0,0,0,0,0
	c-0.6,0-1-0.4-1-1c0-2.4,0-4.8,0.1-7.2c0-0.4,0-0.8,0-1.2c0-0.6,0.4-1,0.9-1.1c0,0,0,0,0.1,0c2.6,0,5.2,0,7.9,0c0.6,0,1,0.5,1,1.1
	c0.1,2.8,0.1,5.5,0.1,8.2c0.1,0.6-0.4,1.1-1,1.2c-0.1,0-0.3,0-0.4,0c-0.4-0.1-0.7-0.4-0.8-1c0-0.6,0-1.2,0-1.8
	c0.1-1.6,0.1-3.1,0-4.7c0-0.1,0-0.1-0.1-0.2c0,0.2,0,0.3,0,0.5c0,5.9,0,11.9,0,17.8c0,0.2,0,0.5,0,0.7c-0.2,0.6-0.7,1-1.3,0.9
	c-0.6-0.1-1.1-0.6-1.2-1.2c0-0.1,0-0.3,0-0.4V59.7c0-0.2,0-0.3-0.1-0.4c-0.2,0.2-0.1,0.3-0.1,0.5c0,3.6,0,7.2,0,10.8
	c0.1,0.7-0.4,1.3-1,1.4c-0.7,0.2-1.4-0.3-1.5-1c0-0.1,0-0.2,0-0.4c0-1.8,0-3.5,0-5.2c0-4.3-0.1-8.7-0.1-13
	C69.5,52.2,69.5,52.1,69.5,52z"/>
<path d="M62.7,52c-0.1,0.1-0.1,0.3-0.1,0.4c0,5.5,0,11,0,16.6c0,0.5,0,1.1,0,1.6c0,0.7-0.5,1.3-1.2,1.4c0,0-0.1,0-0.1,0
	c-0.7-0.1-1.3-0.7-1.2-1.5c0,0,0,0,0,0c0-3,0-6,0-9c0-0.6,0-1.3,0-1.9c0-0.1,0-0.2-0.1-0.3c-0.1,0.1-0.1,0.3-0.1,0.4v10.8
	c0,0.6-0.4,1.2-1,1.4c-0.7,0.2-1.4-0.3-1.6-1c0-0.1,0-0.2,0-0.4c0-1.4,0-2.8,0-4.1c0-1.6,0-3.2,0-4.8c-0.1-3,0-6.1,0-9.1
	c0-0.2,0-0.3-0.1-0.4c-0.1,0.7-0.2,1.3-0.1,2c0,1.2,0,2.5,0.1,3.7c0,0.4,0,0.8-0.1,1.1c-0.1,0.5-0.6,0.9-1.1,0.8c-0.6,0-1-0.5-1-1.1
	c0-1.3,0-2.6,0-3.8c0-1.5,0-3,0.1-4.5c0-0.6,0.4-1.1,1-1.1c0,0,0.1,0,0.1,0c2.6,0,5.2,0,7.8,0c0.5-0.1,1,0.4,1.1,0.9
	c0,0.1,0,0.1,0,0.2C65,53,65,55.7,65,58.5c0.1,0.6-0.4,1.1-1,1.2c-0.1,0-0.3,0-0.4,0c-0.4-0.1-0.7-0.4-0.7-0.8
	c-0.1-0.6-0.1-1.3-0.1-1.9c0-1.6,0.1-3.3,0-4.9L62.7,52z"/>
<path d="M49.3,48.7c0.1-0.1,0.2-0.3,0.3-0.3c0.5-0.4,0.8-1,0.8-1.7c0-0.2,0.1-0.4,0.3-0.4h6c0.1,0,0.3,0,0.3,0.2
	c0.1,0.8,0.5,1.6,1.1,2.1c0,0,0,0,0,0.1c-0.5,0-1,0-1.6,0c-0.3,0-0.5,0-0.8,0c-0.9,0.1-1.5,0.8-1.4,1.7v6.3c0,0.6,0,1.2,0,1.7
	c-0.1,0.9,0.6,1.7,1.5,1.8c0.2,0,0.4,0,0.6-0.1c0.3-0.1,0.3,0,0.3,0.3c0,2.7,0,5.4,0,8.1c0,0.7-0.5,1.3-1.3,1.4
	c-0.7,0-1.3-0.5-1.4-1.3c0-0.6,0-1.3,0-1.9c0-3.1,0-6.2,0-9.3c0.1-0.3,0.1-0.6,0-0.8c-0.1,0.1-0.1,0.3-0.1,0.4c0,3.7,0,7.4,0,11.1
	c0,0.2,0,0.5-0.1,0.7c-0.2,0.7-0.8,1.1-1.5,1c-0.6-0.1-1.1-0.7-1.1-1.3c0-0.4,0-0.8,0-1.3c0-2.3,0-4.5,0-6.8c0-0.2,0-0.3,0.3-0.3
	c0.9,0.1,1.7-0.6,1.7-1.5c0-0.1,0-0.1,0-0.2c0-1.5,0-2.9-0.1-4.4c0-1.3,0-2.5,0-3.8c0-0.9-0.8-1.6-1.7-1.6c0,0,0,0-0.1,0
	C50.7,48.7,50,48.7,49.3,48.7z"/>
<path d="M37,48.7c0.5-0.4,0.9-0.9,1.1-1.5l0.1-0.3c0.1-0.6,0.1-0.6,0.8-0.6c1.8,0,3.6,0,5.4,0c0.4,0,0.5,0.1,0.5,0.5
	c0.1,0.6,0.4,1.2,0.9,1.6c0.1,0.1,0.2,0.1,0.2,0.3c-0.4,0-0.7,0-1.1,0c-0.5,0-1,0-1.4,0.1c-0.7,0.1-1.2,0.7-1.3,1.4
	c-0.1,1.5,0,3-0.1,4.4c0,1.2,0,2.3-0.1,3.5c0,0.3,0,0.6,0.1,0.9c0.2,0.7,0.7,1.2,1.4,1.2c0.3,0,0.4,0.1,0.4,0.4c0,2.6,0,5.2,0,7.8
	c0.1,0.7-0.5,1.4-1.2,1.5c-0.7,0.1-1.4-0.5-1.5-1.2c0-0.1,0-0.1,0-0.2c0-0.6,0-1.2,0-1.8c0-3.2,0-6.4,0-9.6c0-0.1,0-0.3-0.1-0.4
	c-0.2,0.1-0.1,0.3-0.1,0.4c0,3.7,0,7.5,0,11.2c0,0.4-0.1,0.8-0.4,1.1c-0.4,0.4-0.9,0.5-1.4,0.3c-0.5-0.2-0.8-0.7-0.8-1.2
	c0-2.6,0-5.2,0-7.8c0-0.2-0.1-0.4,0-0.6s0.4,0,0.6,0c0.9,0.1,1.7-0.6,1.8-1.5c0-0.1,0-0.1,0-0.2c-0.1-2.8,0-5.5-0.1-8.3
	c0-0.9-0.8-1.6-1.7-1.6c0,0-0.1,0-0.1,0C38.5,48.7,37.8,48.7,37,48.7z"/>
<path d="M61.6,48.6c0.2-0.2,0.4-0.5,0.6-0.7c0.3-0.4,0.5-0.8,0.5-1.3c0-0.2,0.1-0.3,0.3-0.3h6c0.2,0,0.3,0.1,0.3,0.3
	c0.1,0.7,0.4,1.4,1,1.9c0,0,0.1,0.1,0.1,0.2s-0.2,0.1-0.2,0.1h-1.7c-0.9-0.1-1.8,0.6-1.8,1.6c0,0,0,0,0,0.1c0,1.4,0,2.8,0,4.3
	c0,1.1,0,2.3-0.1,3.4c0,0.7,0.1,1.4,0.1,2.1c0,2.6,0,5.2,0,7.8c0,0.3,0,0.5,0,0.8c-0.1,0.7-0.7,1.2-1.5,1.2
	c-0.7-0.1-1.2-0.7-1.2-1.4c0-2.6,0-5.2-0.1-7.9c0-0.3,0-0.5,0.4-0.6c0.7-0.2,1.2-0.9,1.2-1.7c0-1.6,0-3.2-0.1-4.8c0-1,0-2,0-3.1
	c0.1-0.9-0.5-1.8-1.5-1.9c-0.2,0-0.3,0-0.5,0h-1.7C61.8,48.7,61.7,48.7,61.6,48.6z"/>
<path d="M82.8,48.7c-0.6,0-1.2,0-1.8,0c-0.2,0-0.4,0-0.7,0c-0.8,0.1-1.4,0.8-1.4,1.6c0,2,0,4,0,6c0,0.7,0,1.4,0,2.1
	c0,0.4,0.1,0.9,0.4,1.2c0.1,0.1,0.2,0.3,0.2,0.4c0,2.8,0,5.5,0,8.3c0.1,0.7-0.5,1.4-1.2,1.5c-0.7,0.1-1.4-0.5-1.5-1.2c0,0,0,0,0-0.1
	c0-0.1,0.1-0.3-0.2-0.4c0,0-0.1,0,0-0.1c0.3-0.2,0.1-0.5,0.1-0.8c0-2.3,0-4.5,0-6.8c0-0.2,0.1-0.5,0.3-0.6c0.5-0.3,0.8-0.9,0.7-1.5
	c-0.1-1.8,0-3.6-0.1-5.3c0-0.9,0-1.8,0-2.7c0-0.9-0.7-1.7-1.7-1.7c0,0-0.1,0-0.1,0c-0.4,0-0.8,0-1.3,0s-0.5-0.2-0.3-0.5
	c0.3-0.5,0.6-1,0.7-1.6c0-0.1,0.1-0.2,0.2-0.2c0.2,0,0.4,0,0.6-0.1c1.8,0,3.5,0,5.3,0c0.4,0,0.5,0.1,0.6,0.5
	c0.1,0.6,0.4,1.2,0.8,1.6C82.6,48.4,82.7,48.5,82.8,48.7z"/>
<path d="M67,59.6c0.2,0.3,0.6,0.5,0.9,0.6c0.3,0.1,0.5,0.1,0.8,0c0.3-0.1,0.4,0,0.4,0.3s0,0.8,0,1.3c0,2.5,0,5,0,7.5
	c0,0.2-0.1,0.4-0.3,0.5c-0.6,0.3-1.4,0.1-1.7-0.6c0-0.1-0.1-0.2-0.1-0.3c-0.1-0.2-0.1-0.4-0.1-0.6v-8.4C66.9,59.8,66.8,59.7,67,59.6
	z"/>
<path d="M66.7,45.7c-1.4,0-2.5-1.1-2.5-2.5s1.1-2.5,2.5-2.5l0,0c1.4,0,2.5,1.1,2.5,2.5S68.1,45.7,66.7,45.7z"/>
<path d="M41.2,45.7c-1.4,0-2.5-1.2-2.5-2.6c0,0,0,0,0,0c0.1-1.4,1.3-2.4,2.6-2.3c1.2,0.1,2.2,1.1,2.3,2.3
	C43.7,44.5,42.6,45.7,41.2,45.7C41.2,45.7,41.2,45.7,41.2,45.7z"/>
<path d="M79.5,45.7c-1.4,0-2.4-1.2-2.4-2.5c0-1.3,1.1-2.4,2.4-2.4c1.4,0,2.5,1.1,2.5,2.5S80.9,45.7,79.5,45.7L79.5,45.7z"/>
<path d="M56.4,43.2c0,1.3-1.1,2.4-2.4,2.4c-1.3,0-2.4-1.1-2.4-2.4c0-1.3,1.1-2.4,2.4-2.4C55.3,40.7,56.4,41.8,56.4,43.2
	C56.4,43.2,56.4,43.2,56.4,43.2z"/>
<path d="M47.7,48.7c-1.3,0-2.4-1.1-2.4-2.5c0-1.3,1.1-2.4,2.4-2.4s2.4,1.1,2.4,2.4C50,47.5,49,48.6,47.7,48.7z"/>
<path d="M59.9,48.7c-1.3-0.1-2.3-1.1-2.3-2.4c0-1.3,1.1-2.4,2.4-2.4c0,0,0.1,0,0.1,0c1.2,0.1,2.2,1.1,2.3,2.3
	C62.3,47.5,61.2,48.6,59.9,48.7z"/>
<path d="M72.2,43.9c1.3,0,2.3,1,2.3,2.3c0,0,0,0,0,0c0.1,1.3-0.9,2.4-2.2,2.5c-1.3,0.1-2.4-0.9-2.5-2.2c0-0.1,0-0.2,0-0.3
	C69.9,44.9,70.9,43.9,72.2,43.9C72.2,43.9,72.2,43.9,72.2,43.9z"/>
<path d="M35.4,43.9c1.3,0,2.3,1,2.3,2.3c0,0,0,0,0,0c0.1,1.3-0.9,2.4-2.2,2.5c-1.3,0.1-2.4-0.9-2.5-2.2c0-0.1,0-0.2,0-0.3
	C33.1,44.9,34.1,43.9,35.4,43.9C35.4,43.9,35.4,43.9,35.4,43.9z"/>
<path d="M84.5,43.9c1.3,0,2.3,1.1,2.3,2.4c0,0,0,0,0,0c0,1.3-1.1,2.4-2.4,2.4c-1.3,0-2.4-1.1-2.4-2.4C82.1,44.9,83.1,43.9,84.5,43.9
	C84.4,43.9,84.5,43.9,84.5,43.9z"/>
<path d="M81.3,65.1c0,1.3,0,2.9,0,4.5c0,0.3-0.1,0.4-0.4,0.4c-0.7,0-1.3-0.6-1.3-1.3c0,0,0,0,0,0c0-2.8,0-5.5,0-8.3
	c0-0.3,0.1-0.3,0.3-0.2c0.3,0.2,0.7,0.2,1,0.1c0.3-0.1,0.4,0,0.4,0.3C81.3,61.9,81.3,63.4,81.3,65.1z"/>
<circle class="st2" cx="117" cy="56" r="6.2"/>
<path class="st2" d="M4.6,49.7c3.4,0,6.2,2.8,6.2,6.2S8,62.2,4.6,62.2S0,47.7,0,44.3S1.2,49.7,4.6,49.7z"/>
</svg>
